<?xml version="1.0" standalone="no"?>
<!DOCTYPE svg PUBLIC "-//W3C//DTD SVG 20010904//EN"
 "http://www.w3.org/TR/2001/REC-SVG-20010904/DTD/svg10.dtd">
<svg version="1.0" xmlns="http://www.w3.org/2000/svg"
 width="70.000000pt" height="70.000000pt" viewBox="0 0 70.000000 70.000000"
 preserveAspectRatio="xMidYMid meet">
<metadata>
Created by potrace 1.14, written by Peter Selinger 2001-2017
</metadata>
<g transform="translate(0.000000,70.000000) scale(0.100000,-0.100000)"
fill="#000000" stroke="none">
<path d="M600 524 l0 -76 -31 31 c-30 31 -45 35 -104 32 -63 -3 -115 -70 -115
-148 0 -54 12 -85 47 -117 50 -47 117 -47 172 0 l31 26 0 -26 c0 -20 5 -26 23
-26 l22 0 1 190 1 190 -24 0 c-22 0 -23 -3 -23 -76z m-40 -71 c76 -69 36 -203
-61 -203 -55 0 -90 33 -96 93 -7 57 8 97 45 120 40 24 77 21 112 -10z"/>
<path d="M304 513 c-9 -14 -15 -15 -44 -5 -128 45 -251 -51 -180 -141 l20 -26
-25 -25 c-29 -29 -31 -43 -9 -74 9 -13 11 -22 4 -22 -6 0 -15 -11 -22 -25 -27
-61 61 -104 172 -83 61 11 85 21 117 51 24 22 38 66 29 95 -12 38 -87 52 -181
33 -47 -9 -65 -5 -65 15 0 11 15 14 63 14 103 0 148 41 134 126 -5 31 -4 34
19 34 28 0 44 28 23 41 -22 14 -43 11 -55 -8z m-72 -68 c17 -39 -3 -75 -42
-75 -23 0 -33 6 -40 25 -16 42 5 75 48 75 14 0 26 -9 34 -25z m48 -235 c0 -10
-12 -23 -27 -29 -64 -26 -137 -17 -131 16 2 14 19 21 68 29 74 12 90 9 90 -16z"/>
</g>
</svg>
